PathFileType	4	(X/Y/Z)	s04c0001.trc
DataRate	CameraRate	NumFrames	NumMarkers	Units	OrigDataRate	OrigDataStartFrame	OrigNumFrames
200	200	4	49	mm	200	0	2000
Frame#	Time	racr			lacr			c7			jug			rlel			rdr			llel			ldr			s2			lic			ric			lasi			rasi			rpsi			lpsi			rgt			lgt			rth1			rth2			rth3			rth4			rlfc			rmfc			rsh1			rsh2			rsh3			rsh4			rlmal			rmmal			rcal			rtoe			rmt5			rmt1			lth1			lth2			lth4			lth3			llfc			lmfc			lsh1			lsh2			lsh3			lsh4			llmal			lmmal			lcal			ltoe			lmt1			lmt5			
		X1	Y1	Z1	X2	Y2	Z2	X3	Y3	Z3	X4	Y4	Z4	X5	Y5	Z5	X6	Y6	Z6	X7	Y7	Z7	X8	Y8	Z8	X9	Y9	Z9	X10	Y10	Z10	X11	Y11	Z11	X12	Y12	Z12	X13	Y13	Z13	X14	Y14	Z14	X15	Y15	Z15	X16	Y16	Z16	X17	Y17	Z17	X18	Y18	Z18	X19	Y19	Z19	X20	Y20	Z20	X21	Y21	Z21	X22	Y22	Z22	X23	Y23	Z23	X24	Y24	Z24	X25	Y25	Z25	X26	Y26	Z26	X27	Y27	Z27	X28	Y28	Z28	X29	Y29	Z29	X30	Y30	Z30	X31	Y31	Z31	X32	Y32	Z32	X33	Y33	Z33	X34	Y34	Z34	X35	Y35	Z35	X36	Y36	Z36	X37	Y37	Z37	X38	Y38	Z38	X39	Y39	Z39	X40	Y40	Z40	X41	Y41	Z41	X42	Y42	Z42	X43	Y43	Z43	X44	Y44	Z44	X45	Y45	Z45	X46	Y46	Z46	X47	Y47	Z47	X48	Y48	Z48	X49	Y49	Z49	
0	0.0000	161.213272	1559.628784	280.786896	184.212082	1556.321167	-83.660942	110.403389	1589.802856	83.177223	244.147446	1527.544434	96.119591	90.542473	1218.639893	376.500732	205.143692	980.187012	489.572998	148.762329	1239.931641	-194.645157	294.251678	986.598877	-277.437988	58.446003	1053.295776	97.547836	233.403061	1110.903442	-49.069412	196.359863	1102.268677	274.175140	280.848602	1056.268799	5.202031	261.821991	1061.050659	232.514816	76.106422	1088.536865	142.638794	77.617416	1084.074951	63.254356	160.978012	1001.074707	278.138824	184.778687	955.548279	-67.111931	176.595886	865.812988	299.923492	191.875961	779.528503	291.201508	165.452621	699.104797	280.539001	228.210419	778.514954	280.840363	152.658981	547.898010	250.789642	160.361801	525.575073	140.447601	104.608200	425.249359	269.030426	120.629440	335.443512	260.692688	88.143288	256.663849	243.589142	157.173965	335.245819	246.273666	89.315941	102.756447	231.909164	137.931290	111.317589	159.583862	48.154968	68.192978	168.208542	313.809570	83.392502	304.818176	231.946503	52.913567	326.774384	279.128021	50.004135	227.852325	188.120941	862.154114	-80.013969	207.059402	778.041687	-79.961456	242.625870	777.355042	-68.545166	182.474884	692.244629	-72.175041	162.297775	551.684326	-53.824696	188.472122	521.794678	50.769268	146.785355	423.365448	-80.156059	169.648331	339.680969	-67.758430	146.519547	253.510468	-67.402603	198.917480	342.185364	-42.749912	147.069672	104.075523	-63.539253	154.442032	100.594833	22.266630	80.170143	77.344559	-14.544686	376.839111	83.091713	-57.774799	312.681458	55.047081	0.051248	302.126190	43.349709	-111.279228	
1	0.0050	161.210083	1559.657959	280.774200	184.222672	1556.311035	-83.674110	110.411102	1589.825317	83.156380	244.139481	1527.541382	96.093575	90.452759	1218.703491	376.535553	204.979233	980.228088	489.630554	148.735840	1239.922729	-194.654129	294.173462	986.549377	-277.423859	58.417091	1053.290405	97.567001	233.325226	1110.901123	-49.074554	196.268494	1102.287231	274.188263	280.750671	1056.252197	5.200093	261.763947	1061.041992	232.534256	76.041054	1088.537354	142.635468	77.578407	1084.054321	63.249355	160.909058	1001.065186	278.143463	184.722336	955.536255	-67.111847	176.577011	865.826782	299.936310	191.832108	779.524231	291.219666	165.455994	699.107361	280.565277	228.166977	778.548767	280.881287	152.669724	547.885254	250.814529	160.405304	525.583496	140.474274	104.649918	425.212860	269.058136	120.659065	335.434753	260.689697	88.158958	256.663086	243.596466	157.204239	335.217834	246.287537	89.310776	102.746674	231.907944	137.931183	111.318138	159.578857	48.149559	68.188744	168.215851	313.810242	83.380714	304.823853	231.926270	52.897358	326.769745	279.127960	50.007050	227.856827	188.088272	862.145020	-80.023727	207.049820	778.045532	-79.958992	242.619919	777.372803	-68.549683	182.480087	692.229675	-72.168633	162.334061	551.690796	-53.818027	188.544495	521.784790	50.766895	146.833923	423.362244	-80.151390	169.679108	339.632996	-67.751938	146.534180	253.517288	-67.412117	198.973969	342.125366	-42.703110	147.066071	104.087723	-63.540627	154.443573	100.607498	22.256866	80.174332	77.343132	-14.548395	376.824860	83.101357	-57.789330	312.684418	55.042515	0.051724	302.091461	43.372860	-111.285835	
2	0.0100	161.231400	1559.684204	280.765045	184.214142	1556.295654	-83.683754	110.403481	1589.857422	83.172394	244.133636	1527.516846	96.080643	90.408302	1218.733521	376.548798	204.837433	980.256348	489.680298	148.686264	1239.908569	-194.648117	294.112732	986.517822	-277.405457	58.350494	1053.283447	97.555611	233.265244	1110.905884	-49.070572	196.212112	1102.298340	274.185364	280.695160	1056.267212	5.211022	261.706177	1061.057007	232.557693	75.983261	1088.531860	142.636673	77.513588	1084.061157	63.248322	160.826736	1001.067810	278.156586	184.665985	955.542480	-67.107124	176.542389	865.818726	299.943665	191.834854	779.530029	291.218201	165.440735	699.085999	280.569580	228.169083	778.555725	280.889557	152.712143	547.882629	250.836243	160.452728	525.572083	140.495590	104.681702	425.189911	269.065918	120.694084	335.419769	260.694122	88.178864	256.646973	243.599045	157.240280	335.214081	246.288940	89.317421	102.745346	231.904922	137.936478	111.327866	159.570099	48.147400	68.197327	168.200836	313.804901	83.388588	304.817719	231.916916	52.917408	326.770599	279.135712	49.999538	227.856155	188.061081	862.149841	-80.025223	207.025543	778.018921	-79.950600	242.614349	777.391174	-68.554359	182.506775	692.229492	-72.169418	162.391663	551.691772	-53.827251	188.620193	521.793701	50.773689	146.866974	423.355438	-80.145714	169.718414	339.639343	-67.738152	146.551132	253.508865	-67.405899	199.006027	342.119934	-42.702923	147.049728	104.095810	-63.546211	154.443466	100.602692	22.264078	80.179565	77.335945	-14.550467	376.836639	83.097382	-57.776199	312.688690	55.038158	0.061830	302.103760	43.358166	-111.279671	
3	0.0150	161.221344	1559.700806	280.744843	184.225372	1556.285156	-83.709404	110.426582	1589.870239	83.139160	244.107346	1527.505859	96.060364	90.340973	1218.783813	376.563538	204.698425	980.287476	489.732605	148.655090	1239.911255	-194.645828	294.025818	986.489319	-277.404480	58.952744	1053.038574	98.229385	233.185120	1110.882080	-49.087990	196.387695	1102.119263	274.192474	280.644348	1056.293091	5.209731	261.631958	1061.070312	232.556854	75.929764	1088.535522	142.633682	77.452843	1084.061157	63.246899	160.780823	1001.065552	278.153778	184.621017	955.547729	-67.105003	176.614609	865.803528	299.965088	190.474625	780.043762	292.743988	165.441620	699.102661	280.595032	228.038651	778.773193	280.992889	152.744370	547.875366	250.853210	160.477509	525.560913	140.500366	104.709946	425.200043	269.083191	120.737381	335.550629	260.648987	88.201485	256.643707	243.609802	157.143829	335.149323	246.210434	89.089844	102.904518	231.905273	138.027451	111.174248	159.607941	48.154968	68.187325	168.202927	313.799316	83.395020	304.814819	231.948349	52.911175	326.782318	279.133453	50.010616	227.860443	188.022690	862.142029	-80.014038	208.245880	777.453613	-77.585983	243.578369	775.856079	-67.597244	182.514572	692.234375	-72.169258	162.425827	551.689636	-53.817589	188.685684	521.792542	50.776989	146.905411	423.328827	-80.191589	169.762558	339.619904	-67.740578	146.590195	253.504639	-67.397087	199.062073	341.254852	-41.666630	147.081070	104.072533	-63.535831	154.724289	100.174866	22.259340	80.176704	77.343864	-14.532019	376.906952	82.952278	-57.773357	312.685852	55.043320	0.054708	302.104523	43.369961	-111.291245	
